# MagicaVoxel @ Ephtracy

# group
o 

# material
mtllib untitled-0.mtl
usemtl palette

# normals
vn -1 0 0
vn 1 0 0
vn 0 0 1
vn 0 0 -1
vn 0 -1 0
vn 0 1 0

# texcoords
vt 0.0214844 0.5
vt 0.0449219 0.5
vt 0.142578 0.5
vt 0.380859 0.5
vt 0.388672 0.5

# verts
v -0.8 0.7 0.2
v -0.8 0.7 -0.2
v -0.8 0.8 0.3
v -0.8 0.8 0.2
v -0.8 0.8 0.1
v -0.8 0.8 -0.1
v -0.8 0.8 -0.2
v -0.8 0.8 -0.3
v -0.8 1 0.3
v -0.8 1 0.2
v -0.8 1 0.1
v -0.8 1 -0.1
v -0.8 1 -0.2
v -0.8 1 -0.3
v -0.8 1.1 0.2
v -0.8 1.1 -0.2
v -0.7 0 0.5
v -0.7 0 -0.5
v -0.7 0.1 0.4
v -0.7 0.1 -0.4
v -0.7 0.7 0.4
v -0.7 0.7 0.2
v -0.7 0.7 -0.2
v -0.7 0.7 -0.4
v -0.7 0.8 0.4
v -0.7 0.8 0.3
v -0.7 0.8 0.2
v -0.7 0.8 0.1
v -0.7 0.8 -0.1
v -0.7 0.8 -0.2
v -0.7 0.8 -0.3
v -0.7 0.8 -0.4
v -0.7 0.9 0.4
v -0.7 0.9 0.3
v -0.7 0.9 0.1
v -0.7 0.9 -0.1
v -0.7 0.9 -0.3
v -0.7 0.9 -0.4
v -0.7 1 0.5
v -0.7 1 0.3
v -0.7 1 0.1
v -0.7 1 -0.1
v -0.7 1 -0.3
v -0.7 1 -0.5
v -0.2 0.6 0.6
v -0.2 0.6 0.5
v -0.2 0.7 0.5
v -0.2 0.8 0.5
v -0.2 0.9 0.6
v -0.2 0.9 0.5
v 0.1 0.6 0.6
v 0.1 0.6 0.5
v 0.1 0.7 0.6
v 0.1 0.7 0.5
v 0.1 0.8 0.6
v 0.1 0.8 0.5
v 0.1 0.9 0.6
v 0.1 0.9 0.5
v 0.8 1 0.2
v 0.8 1 -0.2
v 0.8 1.1 0.2
v 0.8 1.1 -0.2
v -0.7 1 0.2
v -0.7 1 -0.2
v -0.7 1.1 0.2
v -0.7 1.1 -0.2
v 0 0.6 0.6
v 0 0.6 0.5
v 0 0.7 0.6
v 0 0.7 0.5
v 0 0.8 0.6
v 0 0.8 0.5
v 0 0.9 0.6
v 0 0.9 0.5
v 0.3 0.6 0.6
v 0.3 0.6 0.5
v 0.3 0.7 0.5
v 0.3 0.8 0.5
v 0.3 0.9 0.6
v 0.3 0.9 0.5
v 0.8 0 0.5
v 0.8 0 -0.5
v 0.8 0.1 0.4
v 0.8 0.1 -0.4
v 0.8 0.7 0.4
v 0.8 0.7 0.2
v 0.8 0.7 -0.2
v 0.8 0.7 -0.4
v 0.8 0.8 0.4
v 0.8 0.8 0.3
v 0.8 0.8 0.2
v 0.8 0.8 0.1
v 0.8 0.8 -0.1
v 0.8 0.8 -0.2
v 0.8 0.8 -0.3
v 0.8 0.8 -0.4
v 0.8 0.9 0.4
v 0.8 0.9 0.3
v 0.8 0.9 0.1
v 0.8 0.9 -0.1
v 0.8 0.9 -0.3
v 0.8 0.9 -0.4
v 0.8 1 0.5
v 0.8 1 0.3
v 0.8 1 0.1
v 0.8 1 -0.1
v 0.8 1 -0.3
v 0.8 1 -0.5
v 0.9 0.7 0.2
v 0.9 0.7 -0.2
v 0.9 0.8 0.3
v 0.9 0.8 0.2
v 0.9 0.8 0.1
v 0.9 0.8 -0.1
v 0.9 0.8 -0.2
v 0.9 0.8 -0.3
v 0.9 1 0.3
v 0.9 1 0.2
v 0.9 1 0.1
v 0.9 1 -0.1
v 0.9 1 -0.2
v 0.9 1 -0.3
v 0.9 1.1 0.2
v 0.9 1.1 -0.2
v -0.2 0.6 0.6
v -0.2 0.9 0.6
v -0.1 0.7 0.6
v -0.1 0.8 0.6
v 0 0.6 0.6
v 0 0.7 0.6
v 0 0.8 0.6
v 0 0.9 0.6
v 0.1 0.6 0.6
v 0.1 0.7 0.6
v 0.1 0.8 0.6
v 0.1 0.9 0.6
v 0.2 0.7 0.6
v 0.2 0.8 0.6
v 0.3 0.6 0.6
v 0.3 0.9 0.6
v -0.7 0 0.5
v -0.7 1 0.5
v -0.6 0.1 0.5
v -0.6 0.7 0.5
v -0.6 0.8 0.5
v -0.6 0.9 0.5
v -0.2 0.6 0.5
v -0.2 0.7 0.5
v -0.2 0.8 0.5
v -0.2 0.9 0.5
v 0 0.6 0.5
v 0 0.7 0.5
v 0 0.8 0.5
v 0 0.9 0.5
v 0.1 0.6 0.5
v 0.1 0.7 0.5
v 0.1 0.8 0.5
v 0.1 0.9 0.5
v 0.3 0.6 0.5
v 0.3 0.7 0.5
v 0.3 0.8 0.5
v 0.3 0.9 0.5
v 0.7 0.1 0.5
v 0.7 0.7 0.5
v 0.7 0.8 0.5
v 0.7 0.9 0.5
v 0.8 0 0.5
v 0.8 1 0.5
v -0.8 0.8 0.3
v -0.8 1 0.3
v -0.7 0.8 0.3
v -0.7 0.9 0.3
v -0.7 1 0.3
v 0.8 0.8 0.3
v 0.8 0.9 0.3
v 0.8 1 0.3
v 0.9 0.8 0.3
v 0.9 1 0.3
v -0.8 0.7 0.2
v -0.8 0.8 0.2
v -0.8 1 0.2
v -0.8 1.1 0.2
v -0.7 0.7 0.2
v -0.7 0.8 0.2
v -0.7 1 0.2
v -0.7 1.1 0.2
v 0.8 0.7 0.2
v 0.8 0.8 0.2
v 0.8 1 0.2
v 0.8 1.1 0.2
v 0.9 0.7 0.2
v 0.9 0.8 0.2
v 0.9 1 0.2
v 0.9 1.1 0.2
v -0.8 0.8 -0.1
v -0.8 1 -0.1
v -0.7 0.8 -0.1
v -0.7 0.9 -0.1
v -0.7 1 -0.1
v 0.8 0.8 -0.1
v 0.8 0.9 -0.1
v 0.8 1 -0.1
v 0.9 0.8 -0.1
v 0.9 1 -0.1
v -0.8 0.8 0.1
v -0.8 1 0.1
v -0.7 0.8 0.1
v -0.7 0.9 0.1
v -0.7 1 0.1
v 0.8 0.8 0.1
v 0.8 0.9 0.1
v 0.8 1 0.1
v 0.9 0.8 0.1
v 0.9 1 0.1
v -0.8 0.7 -0.2
v -0.8 0.8 -0.2
v -0.8 1 -0.2
v -0.8 1.1 -0.2
v -0.7 0.7 -0.2
v -0.7 0.8 -0.2
v -0.7 1 -0.2
v -0.7 1.1 -0.2
v 0.8 0.7 -0.2
v 0.8 0.8 -0.2
v 0.8 1 -0.2
v 0.8 1.1 -0.2
v 0.9 0.7 -0.2
v 0.9 0.8 -0.2
v 0.9 1 -0.2
v 0.9 1.1 -0.2
v -0.8 0.8 -0.3
v -0.8 1 -0.3
v -0.7 0.8 -0.3
v -0.7 0.9 -0.3
v -0.7 1 -0.3
v 0.8 0.8 -0.3
v 0.8 0.9 -0.3
v 0.8 1 -0.3
v 0.9 0.8 -0.3
v 0.9 1 -0.3
v -0.7 0 -0.5
v -0.7 1 -0.5
v -0.6 0.1 -0.5
v -0.6 0.7 -0.5
v -0.6 0.8 -0.5
v -0.6 0.9 -0.5
v 0.7 0.1 -0.5
v 0.7 0.7 -0.5
v 0.7 0.8 -0.5
v 0.7 0.9 -0.5
v 0.8 0 -0.5
v 0.8 1 -0.5
v -0.7 0 0.5
v 0.8 0 0.5
v -0.6 0 0.4
v 0.7 0 0.4
v -0.6 0 -0.4
v 0.7 0 -0.4
v -0.7 0 -0.5
v 0.8 0 -0.5
v -0.2 0.6 0.6
v 0 0.6 0.6
v 0.1 0.6 0.6
v 0.3 0.6 0.6
v -0.2 0.6 0.5
v 0 0.6 0.5
v 0.1 0.6 0.5
v 0.3 0.6 0.5
v 0 0.7 0.6
v 0.1 0.7 0.6
v 0 0.7 0.5
v 0.1 0.7 0.5
v -0.8 0.7 0.2
v -0.7 0.7 0.2
v 0.8 0.7 0.2
v 0.9 0.7 0.2
v -0.8 0.7 -0.2
v -0.7 0.7 -0.2
v 0.8 0.7 -0.2
v 0.9 0.7 -0.2
v -0.8 0.8 0.3
v -0.7 0.8 0.3
v 0.8 0.8 0.3
v 0.9 0.8 0.3
v -0.8 0.8 0.2
v -0.7 0.8 0.2
v 0.8 0.8 0.2
v 0.9 0.8 0.2
v -0.8 0.8 -0.2
v -0.7 0.8 -0.2
v 0.8 0.8 -0.2
v 0.9 0.8 -0.2
v -0.8 0.8 -0.3
v -0.7 0.8 -0.3
v 0.8 0.8 -0.3
v 0.9 0.8 -0.3
v -0.8 1 0.1
v -0.7 1 0.1
v 0.8 1 0.1
v 0.9 1 0.1
v -0.8 1 -0.1
v -0.7 1 -0.1
v 0.8 1 -0.1
v 0.9 1 -0.1
v 0 0.8 0.6
v 0.1 0.8 0.6
v 0 0.8 0.5
v 0.1 0.8 0.5
v -0.8 0.8 0.1
v -0.7 0.8 0.1
v 0.8 0.8 0.1
v 0.9 0.8 0.1
v -0.8 0.8 -0.1
v -0.7 0.8 -0.1
v 0.8 0.8 -0.1
v 0.9 0.8 -0.1
v -0.2 0.9 0.6
v 0 0.9 0.6
v 0.1 0.9 0.6
v 0.3 0.9 0.6
v -0.2 0.9 0.5
v 0 0.9 0.5
v 0.1 0.9 0.5
v 0.3 0.9 0.5
v -0.7 1 0.5
v 0.8 1 0.5
v -0.6 1 0.4
v 0.7 1 0.4
v -0.8 1 0.3
v -0.7 1 0.3
v 0.8 1 0.3
v 0.9 1 0.3
v -0.8 1 0.2
v -0.7 1 0.2
v 0.8 1 0.2
v 0.9 1 0.2
v -0.8 1 -0.2
v -0.7 1 -0.2
v 0.8 1 -0.2
v 0.9 1 -0.2
v -0.8 1 -0.3
v -0.7 1 -0.3
v 0.8 1 -0.3
v 0.9 1 -0.3
v -0.6 1 -0.4
v 0.7 1 -0.4
v -0.7 1 -0.5
v 0.8 1 -0.5
v -0.8 1.1 0.2
v -0.7 1.1 0.2
v 0.8 1.1 0.2
v 0.9 1.1 0.2
v -0.8 1.1 -0.2
v -0.7 1.1 -0.2
v 0.8 1.1 -0.2
v 0.9 1.1 -0.2

# faces
f 4/2/1 2/2/1 1/2/1
f 5/2/1 2/2/1 4/2/1
f 6/2/1 2/2/1 5/2/1
f 7/2/1 2/2/1 6/2/1
f 9/2/1 4/2/1 3/2/1
f 9/2/1 5/2/1 4/2/1
f 10/2/1 5/2/1 9/2/1
f 11/2/1 5/2/1 10/2/1
f 12/2/1 8/2/1 7/2/1
f 12/2/1 7/2/1 6/2/1
f 13/2/1 8/2/1 12/2/1
f 14/2/1 8/2/1 13/2/1
f 15/2/1 11/2/1 10/2/1
f 15/2/1 13/2/1 12/2/1
f 15/2/1 12/2/1 11/2/1
f 16/2/1 13/2/1 15/2/1
f 19/1/1 18/1/1 17/1/1
f 20/1/1 18/1/1 19/1/1
f 21/1/1 19/1/1 17/1/1
f 21/3/1 20/3/1 19/3/1
f 22/3/1 20/3/1 21/3/1
f 23/3/1 20/3/1 22/3/1
f 24/1/1 18/1/1 20/1/1
f 24/3/1 20/3/1 23/3/1
f 25/1/1 21/1/1 17/1/1
f 25/1/1 22/1/1 21/1/1
f 26/1/1 22/1/1 25/1/1
f 27/1/1 22/1/1 26/1/1
f 30/1/1 24/1/1 23/1/1
f 31/1/1 24/1/1 30/1/1
f 32/1/1 18/1/1 24/1/1
f 32/1/1 24/1/1 31/1/1
f 33/1/1 25/1/1 17/1/1
f 33/3/1 26/3/1 25/3/1
f 34/3/1 26/3/1 33/3/1
f 35/3/1 29/3/1 28/3/1
f 36/3/1 29/3/1 35/3/1
f 37/3/1 32/3/1 31/3/1
f 38/1/1 18/1/1 32/1/1
f 38/3/1 32/3/1 37/3/1
f 39/1/1 34/1/1 33/1/1
f 39/1/1 33/1/1 17/1/1
f 40/1/1 34/1/1 39/1/1
f 41/1/1 36/1/1 35/1/1
f 42/1/1 36/1/1 41/1/1
f 43/1/1 38/1/1 37/1/1
f 44/1/1 18/1/1 38/1/1
f 44/1/1 38/1/1 43/1/1
f 47/2/1 46/2/1 45/2/1
f 48/2/1 47/2/1 45/2/1
f 49/2/1 48/2/1 45/2/1
f 50/2/1 48/2/1 49/2/1
f 53/2/1 52/2/1 51/2/1
f 54/2/1 52/2/1 53/2/1
f 57/2/1 56/2/1 55/2/1
f 58/2/1 56/2/1 57/2/1
f 61/2/1 60/2/1 59/2/1
f 62/2/1 60/2/1 61/2/1
f 63/2/2 64/2/2 65/2/2
f 65/2/2 64/2/2 66/2/2
f 67/2/2 68/2/2 69/2/2
f 69/2/2 68/2/2 70/2/2
f 71/2/2 72/2/2 73/2/2
f 73/2/2 72/2/2 74/2/2
f 75/2/2 76/2/2 77/2/2
f 75/2/2 77/2/2 78/2/2
f 75/2/2 78/2/2 79/2/2
f 79/2/2 78/2/2 80/2/2
f 81/1/2 82/1/2 83/1/2
f 83/1/2 82/1/2 84/1/2
f 81/1/2 83/1/2 85/1/2
f 83/3/2 84/3/2 85/3/2
f 85/3/2 84/3/2 86/3/2
f 86/3/2 84/3/2 87/3/2
f 84/1/2 82/1/2 88/1/2
f 87/3/2 84/3/2 88/3/2
f 81/1/2 85/1/2 89/1/2
f 85/1/2 86/1/2 89/1/2
f 89/1/2 86/1/2 90/1/2
f 90/1/2 86/1/2 91/1/2
f 87/1/2 88/1/2 94/1/2
f 94/1/2 88/1/2 95/1/2
f 88/1/2 82/1/2 96/1/2
f 95/1/2 88/1/2 96/1/2
f 81/1/2 89/1/2 97/1/2
f 89/3/2 90/3/2 97/3/2
f 97/3/2 90/3/2 98/3/2
f 92/3/2 93/3/2 99/3/2
f 99/3/2 93/3/2 100/3/2
f 95/3/2 96/3/2 101/3/2
f 96/1/2 82/1/2 102/1/2
f 101/3/2 96/3/2 102/3/2
f 97/1/2 98/1/2 103/1/2
f 81/1/2 97/1/2 103/1/2
f 103/1/2 98/1/2 104/1/2
f 99/1/2 100/1/2 105/1/2
f 105/1/2 100/1/2 106/1/2
f 101/1/2 102/1/2 107/1/2
f 102/1/2 82/1/2 108/1/2
f 107/1/2 102/1/2 108/1/2
f 109/2/2 110/2/2 112/2/2
f 112/2/2 110/2/2 113/2/2
f 113/2/2 110/2/2 114/2/2
f 114/2/2 110/2/2 115/2/2
f 111/2/2 112/2/2 117/2/2
f 112/2/2 113/2/2 117/2/2
f 117/2/2 113/2/2 118/2/2
f 118/2/2 113/2/2 119/2/2
f 115/2/2 116/2/2 120/2/2
f 114/2/2 115/2/2 120/2/2
f 120/2/2 116/2/2 121/2/2
f 121/2/2 116/2/2 122/2/2
f 118/2/2 119/2/2 123/2/2
f 120/2/2 121/2/2 123/2/2
f 119/2/2 120/2/2 123/2/2
f 123/2/2 121/2/2 124/2/2
f 127/2/3 126/2/3 125/2/3
f 128/2/3 126/2/3 127/2/3
f 129/2/3 127/2/3 125/2/3
f 130/4/3 128/4/3 127/4/3
f 130/2/3 127/2/3 129/2/3
f 131/2/3 126/2/3 128/2/3
f 131/4/3 128/4/3 130/4/3
f 132/2/3 126/2/3 131/2/3
f 134/2/3 131/2/3 130/2/3
f 135/2/3 131/2/3 134/2/3
f 137/2/3 134/2/3 133/2/3
f 137/5/3 135/5/3 134/5/3
f 138/2/3 136/2/3 135/2/3
f 138/5/3 135/5/3 137/5/3
f 139/2/3 137/2/3 133/2/3
f 139/2/3 138/2/3 137/2/3
f 140/2/3 136/2/3 138/2/3
f 140/2/3 138/2/3 139/2/3
f 143/1/3 142/1/3 141/1/3
f 144/1/3 142/1/3 143/1/3
f 145/1/3 142/1/3 144/1/3
f 146/1/3 142/1/3 145/1/3
f 147/3/3 144/3/3 143/3/3
f 148/1/3 145/1/3 144/1/3
f 148/3/3 144/3/3 147/3/3
f 149/3/3 146/3/3 145/3/3
f 149/1/3 145/1/3 148/1/3
f 150/1/3 142/1/3 146/1/3
f 150/3/3 146/3/3 149/3/3
f 151/3/3 147/3/3 143/3/3
f 154/1/3 142/1/3 150/1/3
f 155/3/3 152/3/3 151/3/3
f 155/3/3 151/3/3 143/3/3
f 156/3/3 152/3/3 155/3/3
f 157/3/3 154/3/3 153/3/3
f 158/1/3 142/1/3 154/1/3
f 158/3/3 154/3/3 157/3/3
f 159/3/3 155/3/3 143/3/3
f 162/1/3 142/1/3 158/1/3
f 163/1/3 143/1/3 141/1/3
f 163/3/3 159/3/3 143/3/3
f 163/3/3 160/3/3 159/3/3
f 164/1/3 161/1/3 160/1/3
f 164/3/3 160/3/3 163/3/3
f 165/3/3 162/3/3 161/3/3
f 165/1/3 161/1/3 164/1/3
f 166/1/3 142/1/3 162/1/3
f 166/3/3 162/3/3 165/3/3
f 167/1/3 164/1/3 163/1/3
f 167/1/3 163/1/3 141/1/3
f 167/1/3 166/1/3 165/1/3
f 167/1/3 165/1/3 164/1/3
f 168/1/3 142/1/3 166/1/3
f 168/1/3 166/1/3 167/1/3
f 171/2/3 170/2/3 169/2/3
f 172/2/3 170/2/3 171/2/3
f 173/2/3 170/2/3 172/2/3
f 177/2/3 175/2/3 174/2/3
f 177/2/3 176/2/3 175/2/3
f 178/2/3 176/2/3 177/2/3
f 183/2/3 180/2/3 179/2/3
f 184/2/3 180/2/3 183/2/3
f 185/2/3 182/2/3 181/2/3
f 186/2/3 182/2/3 185/2/3
f 191/2/3 188/2/3 187/2/3
f 192/2/3 188/2/3 191/2/3
f 193/2/3 190/2/3 189/2/3
f 194/2/3 190/2/3 193/2/3
f 197/2/3 196/2/3 195/2/3
f 198/2/3 196/2/3 197/2/3
f 199/2/3 196/2/3 198/2/3
f 203/2/3 201/2/3 200/2/3
f 203/2/3 202/2/3 201/2/3
f 204/2/3 202/2/3 203/2/3
f 205/2/4 206/2/4 207/2/4
f 207/2/4 206/2/4 208/2/4
f 208/2/4 206/2/4 209/2/4
f 210/2/4 211/2/4 213/2/4
f 211/2/4 212/2/4 213/2/4
f 213/2/4 212/2/4 214/2/4
f 215/2/4 216/2/4 219/2/4
f 219/2/4 216/2/4 220/2/4
f 217/2/4 218/2/4 221/2/4
f 221/2/4 218/2/4 222/2/4
f 223/2/4 224/2/4 227/2/4
f 227/2/4 224/2/4 228/2/4
f 225/2/4 226/2/4 229/2/4
f 229/2/4 226/2/4 230/2/4
f 231/2/4 232/2/4 233/2/4
f 233/2/4 232/2/4 234/2/4
f 234/2/4 232/2/4 235/2/4
f 236/2/4 237/2/4 239/2/4
f 237/2/4 238/2/4 239/2/4
f 239/2/4 238/2/4 240/2/4
f 241/1/4 242/1/4 243/1/4
f 243/1/4 242/1/4 244/1/4
f 244/1/4 242/1/4 245/1/4
f 245/1/4 242/1/4 246/1/4
f 241/1/4 243/1/4 247/1/4
f 243/3/4 244/3/4 247/3/4
f 244/1/4 245/1/4 248/1/4
f 247/3/4 244/3/4 248/3/4
f 245/3/4 246/3/4 249/3/4
f 248/1/4 245/1/4 249/1/4
f 246/1/4 242/1/4 250/1/4
f 249/3/4 246/3/4 250/3/4
f 248/1/4 249/1/4 251/1/4
f 247/1/4 248/1/4 251/1/4
f 249/1/4 250/1/4 251/1/4
f 241/1/4 247/1/4 251/1/4
f 250/1/4 242/1/4 252/1/4
f 251/1/4 250/1/4 252/1/4
f 255/1/5 254/1/5 253/1/5
f 256/1/5 254/1/5 255/1/5
f 257/1/5 255/1/5 253/1/5
f 257/3/5 256/3/5 255/3/5
f 258/1/5 254/1/5 256/1/5
f 258/3/5 256/3/5 257/3/5
f 259/1/5 257/1/5 253/1/5
f 259/1/5 258/1/5 257/1/5
f 260/1/5 254/1/5 258/1/5
f 260/1/5 258/1/5 259/1/5
f 265/2/5 262/2/5 261/2/5
f 266/2/5 262/2/5 265/2/5
f 267/2/5 264/2/5 263/2/5
f 268/2/5 264/2/5 267/2/5
f 271/2/5 270/2/5 269/2/5
f 272/2/5 270/2/5 271/2/5
f 277/2/5 274/2/5 273/2/5
f 278/2/5 274/2/5 277/2/5
f 279/2/5 276/2/5 275/2/5
f 280/2/5 276/2/5 279/2/5
f 285/2/5 282/2/5 281/2/5
f 286/2/5 282/2/5 285/2/5
f 287/2/5 284/2/5 283/2/5
f 288/2/5 284/2/5 287/2/5
f 293/2/5 290/2/5 289/2/5
f 294/2/5 290/2/5 293/2/5
f 295/2/5 292/2/5 291/2/5
f 296/2/5 292/2/5 295/2/5
f 301/2/5 298/2/5 297/2/5
f 302/2/5 298/2/5 301/2/5
f 303/2/5 300/2/5 299/2/5
f 304/2/5 300/2/5 303/2/5
f 305/2/6 306/2/6 307/2/6
f 307/2/6 306/2/6 308/2/6
f 309/2/6 310/2/6 313/2/6
f 313/2/6 310/2/6 314/2/6
f 311/2/6 312/2/6 315/2/6
f 315/2/6 312/2/6 316/2/6
f 317/2/6 318/2/6 321/2/6
f 321/2/6 318/2/6 322/2/6
f 319/2/6 320/2/6 323/2/6
f 323/2/6 320/2/6 324/2/6
f 325/1/6 326/1/6 327/1/6
f 327/1/6 326/1/6 328/1/6
f 325/1/6 327/1/6 330/1/6
f 328/1/6 326/1/6 331/1/6
f 329/2/6 330/2/6 333/2/6
f 330/1/6 327/1/6 334/1/6
f 333/2/6 330/2/6 334/2/6
f 331/2/6 332/2/6 335/2/6
f 328/1/6 331/1/6 335/1/6
f 335/2/6 332/2/6 336/2/6
f 334/1/6 327/1/6 338/1/6
f 328/1/6 335/1/6 339/1/6
f 337/2/6 338/2/6 341/2/6
f 338/1/6 327/1/6 342/1/6
f 341/2/6 338/2/6 342/2/6
f 339/2/6 340/2/6 343/2/6
f 328/1/6 339/1/6 343/1/6
f 343/2/6 340/2/6 344/2/6
f 342/1/6 327/1/6 345/1/6
f 327/3/6 328/3/6 345/3/6
f 328/1/6 343/1/6 346/1/6
f 345/3/6 328/3/6 346/3/6
f 342/1/6 345/1/6 347/1/6
f 345/1/6 346/1/6 347/1/6
f 346/1/6 343/1/6 348/1/6
f 347/1/6 346/1/6 348/1/6
f 349/2/6 350/2/6 353/2/6
f 353/2/6 350/2/6 354/2/6
f 351/2/6 352/2/6 355/2/6
f 355/2/6 352/2/6 356/2/6
