# MagicaVoxel @ Ephtracy

# group
o 

# material
mtllib Environment_UntiledLabs_Things-3.mtl
usemtl palette

# normals
vn -1 0 0
vn 1 0 0
vn 0 0 1
vn 0 0 -1
vn 0 -1 0
vn 0 1 0

# texcoords
vt 0.0449219 0.5
vt 0.380859 0.5
vt 0.388672 0.5
vt 0.392578 0.5
vt 0.396484 0.5

# verts
v -0.5 0 -0.1
v -0.5 0 -0.2
v -0.5 0.1 -0.1
v -0.5 0.1 -0.2
v -0.5 0.6 -0.1
v -0.5 0.6 -0.2
v -0.3 0 0.2
v -0.3 0 0.1
v -0.3 0.1 0.2
v -0.3 0.1 0.1
v -0.3 0.6 0.2
v -0.3 0.6 0.1
v 0.1 0 -0.1
v 0.1 0 -0.2
v 0.1 0.1 -0.1
v 0.1 0.1 -0.2
v 0.1 0.6 -0.1
v 0.1 0.6 -0.2
v 0.4 0 0.1
v 0.4 0 0
v 0.4 0.1 0.1
v 0.4 0.1 0
v 0.4 0.6 0.1
v 0.4 0.6 0
v -0.4 0 -0.1
v -0.4 0 -0.2
v -0.4 0.1 -0.1
v -0.4 0.1 -0.2
v -0.4 0.6 -0.1
v -0.4 0.6 -0.2
v -0.2 0 0.2
v -0.2 0 0.1
v -0.2 0.1 0.2
v -0.2 0.1 0.1
v -0.2 0.6 0.2
v -0.2 0.6 0.1
v 0.2 0 -0.1
v 0.2 0 -0.2
v 0.2 0.1 -0.1
v 0.2 0.1 -0.2
v 0.2 0.6 -0.1
v 0.2 0.6 -0.2
v 0.5 0 0.1
v 0.5 0 0
v 0.5 0.1 0.1
v 0.5 0.1 0
v 0.5 0.6 0.1
v 0.5 0.6 0
v -0.3 0 0.2
v -0.3 0.1 0.2
v -0.3 0.6 0.2
v -0.2 0 0.2
v -0.2 0.1 0.2
v -0.2 0.6 0.2
v 0.4 0 0.1
v 0.4 0.1 0.1
v 0.4 0.6 0.1
v 0.5 0 0.1
v 0.5 0.1 0.1
v 0.5 0.6 0.1
v -0.5 0 -0.1
v -0.5 0.1 -0.1
v -0.5 0.6 -0.1
v -0.4 0 -0.1
v -0.4 0.1 -0.1
v -0.4 0.6 -0.1
v 0.1 0 -0.1
v 0.1 0.1 -0.1
v 0.1 0.6 -0.1
v 0.2 0 -0.1
v 0.2 0.1 -0.1
v 0.2 0.6 -0.1
v -0.3 0 0.1
v -0.3 0.1 0.1
v -0.3 0.6 0.1
v -0.2 0 0.1
v -0.2 0.1 0.1
v -0.2 0.6 0.1
v 0.4 0 0
v 0.4 0.1 0
v 0.4 0.6 0
v 0.5 0 0
v 0.5 0.1 0
v 0.5 0.6 0
v -0.5 0 -0.2
v -0.5 0.1 -0.2
v -0.5 0.6 -0.2
v -0.4 0 -0.2
v -0.4 0.1 -0.2
v -0.4 0.6 -0.2
v 0.1 0 -0.2
v 0.1 0.1 -0.2
v 0.1 0.6 -0.2
v 0.2 0 -0.2
v 0.2 0.1 -0.2
v 0.2 0.6 -0.2
v -0.3 0 0.2
v -0.2 0 0.2
v -0.3 0 0.1
v -0.2 0 0.1
v 0.4 0 0.1
v 0.5 0 0.1
v 0.4 0 0
v 0.5 0 0
v -0.5 0 -0.1
v -0.4 0 -0.1
v 0.1 0 -0.1
v 0.2 0 -0.1
v -0.5 0 -0.2
v -0.4 0 -0.2
v 0.1 0 -0.2
v 0.2 0 -0.2
v -0.3 0.6 0.2
v -0.2 0.6 0.2
v -0.3 0.6 0.1
v -0.2 0.6 0.1
v 0.4 0.6 0.1
v 0.5 0.6 0.1
v 0.4 0.6 0
v 0.5 0.6 0
v -0.5 0.6 -0.1
v -0.4 0.6 -0.1
v 0.1 0.6 -0.1
v 0.2 0.6 -0.1
v -0.5 0.6 -0.2
v -0.4 0.6 -0.2
v 0.1 0.6 -0.2
v 0.2 0.6 -0.2

# faces
f 3/1/1 2/1/1 1/1/1
f 4/1/1 2/1/1 3/1/1
f 5/2/1 4/2/1 3/2/1
f 6/2/1 4/2/1 5/2/1
f 9/1/1 8/1/1 7/1/1
f 10/1/1 8/1/1 9/1/1
f 11/5/1 10/5/1 9/5/1
f 12/5/1 10/5/1 11/5/1
f 15/1/1 14/1/1 13/1/1
f 16/1/1 14/1/1 15/1/1
f 17/4/1 16/4/1 15/4/1
f 18/4/1 16/4/1 17/4/1
f 21/1/1 20/1/1 19/1/1
f 22/1/1 20/1/1 21/1/1
f 23/3/1 22/3/1 21/3/1
f 24/3/1 22/3/1 23/3/1
f 25/1/2 26/1/2 27/1/2
f 27/1/2 26/1/2 28/1/2
f 27/2/2 28/2/2 29/2/2
f 29/2/2 28/2/2 30/2/2
f 31/1/2 32/1/2 33/1/2
f 33/1/2 32/1/2 34/1/2
f 33/5/2 34/5/2 35/5/2
f 35/5/2 34/5/2 36/5/2
f 37/1/2 38/1/2 39/1/2
f 39/1/2 38/1/2 40/1/2
f 39/4/2 40/4/2 41/4/2
f 41/4/2 40/4/2 42/4/2
f 43/1/2 44/1/2 45/1/2
f 45/1/2 44/1/2 46/1/2
f 45/3/2 46/3/2 47/3/2
f 47/3/2 46/3/2 48/3/2
f 52/1/3 50/1/3 49/1/3
f 53/5/3 51/5/3 50/5/3
f 53/1/3 50/1/3 52/1/3
f 54/5/3 51/5/3 53/5/3
f 58/1/3 56/1/3 55/1/3
f 59/3/3 57/3/3 56/3/3
f 59/1/3 56/1/3 58/1/3
f 60/3/3 57/3/3 59/3/3
f 64/1/3 62/1/3 61/1/3
f 65/2/3 63/2/3 62/2/3
f 65/1/3 62/1/3 64/1/3
f 66/2/3 63/2/3 65/2/3
f 70/1/3 68/1/3 67/1/3
f 71/4/3 69/4/3 68/4/3
f 71/1/3 68/1/3 70/1/3
f 72/4/3 69/4/3 71/4/3
f 73/1/4 74/1/4 76/1/4
f 74/5/4 75/5/4 77/5/4
f 76/1/4 74/1/4 77/1/4
f 77/5/4 75/5/4 78/5/4
f 79/1/4 80/1/4 82/1/4
f 80/3/4 81/3/4 83/3/4
f 82/1/4 80/1/4 83/1/4
f 83/3/4 81/3/4 84/3/4
f 85/1/4 86/1/4 88/1/4
f 86/2/4 87/2/4 89/2/4
f 88/1/4 86/1/4 89/1/4
f 89/2/4 87/2/4 90/2/4
f 91/1/4 92/1/4 94/1/4
f 92/4/4 93/4/4 95/4/4
f 94/1/4 92/1/4 95/1/4
f 95/4/4 93/4/4 96/4/4
f 99/1/5 98/1/5 97/1/5
f 100/1/5 98/1/5 99/1/5
f 103/1/5 102/1/5 101/1/5
f 104/1/5 102/1/5 103/1/5
f 109/1/5 106/1/5 105/1/5
f 110/1/5 106/1/5 109/1/5
f 111/1/5 108/1/5 107/1/5
f 112/1/5 108/1/5 111/1/5
f 113/5/6 114/5/6 115/5/6
f 115/5/6 114/5/6 116/5/6
f 117/3/6 118/3/6 119/3/6
f 119/3/6 118/3/6 120/3/6
f 121/2/6 122/2/6 125/2/6
f 125/2/6 122/2/6 126/2/6
f 123/4/6 124/4/6 127/4/6
f 127/4/6 124/4/6 128/4/6
